<svg aria-hidden="true" style="position: absolute; width: 0; height: 0; overflow: hidden;" version="1.1" xmlns="http://www.w3.org/2000/svg" xmlns:xlink="http://www.w3.org/1999/xlink">
<defs>
<symbol id="icon-Close" viewBox="0 0 32 32">
<title>Close</title>
<path d="M25.655 5.507c0.231-0.231 0.607-0.231 0.838 0s0.231 0.607 0 0.838v0l-9.656 9.655 9.656 9.656c0.202 0.202 0.227 0.515 0.076 0.745l-0.076 0.093c-0.115 0.115-0.267 0.173-0.418 0.173s-0.303-0.058-0.42-0.173v0l-9.655-9.656-9.655 9.656c-0.086 0.086-0.193 0.14-0.305 0.162l-0.113 0.011c-0.152 0-0.303-0.058-0.42-0.173-0.231-0.231-0.231-0.607 0-0.838v0l9.655-9.656-9.655-9.655c-0.202-0.202-0.228-0.515-0.076-0.745l0.076-0.093c0.231-0.231 0.607-0.231 0.838 0v0l9.655 9.656z"></path>
</symbol>
<symbol id="icon-Copy" viewBox="0 0 32 32">
<title>Copy</title>
<path d="M19.823 7.324c1.154 0 2.095 0.943 2.101 2.105v0 17.761c0 1.162-0.942 2.105-2.101 2.105v0h-12.354c-1.159 0-2.101-0.943-2.101-2.105v0-17.761c0-1.162 0.941-2.105 2.101-2.105v0zM19.818 8.796h-12.354c-0.348 0-0.631 0.284-0.631 0.633v0 17.756c0 0.349 0.283 0.633 0.631 0.633v0h12.354c0.348 0 0.631-0.284 0.631-0.633v0-17.756c0-0.349-0.283-0.633-0.631-0.633v0zM24.547 2.667c1.159 0 2.101 0.943 2.101 2.105v0 17.761c0 1.162-0.942 2.105-2.101 2.105-0.408 0-0.735-0.327-0.735-0.736s0.327-0.736 0.735-0.736c0.348 0 0.631-0.284 0.631-0.633v0-17.761c0-0.349-0.283-0.633-0.631-0.633v0h-12.354c-0.348 0-0.631 0.284-0.631 0.633 0 0.409-0.327 0.736-0.735 0.736s-0.735-0.327-0.735-0.736c0-1.162 0.941-2.105 2.101-2.105v0z"></path>
</symbol>
<symbol id="icon-Down" viewBox="0 0 32 32">
<title>Down</title>
<path d="M16 5.333c-0.515 0-0.933 0.398-0.933 0.889v17.733l-6.791-6.79c-0.355-0.355-0.945-0.37-1.32-0.031s-0.388 0.901-0.032 1.256l7.756 7.755c0.353 0.336 0.821 0.521 1.32 0.521s0.967-0.185 1.336-0.536l7.74-7.74c0.356-0.356 0.341-0.918-0.032-1.256s-0.964-0.325-1.319 0.031l-6.791 6.819v-17.761c0-0.491-0.418-0.889-0.933-0.889z"></path>
</symbol>
<symbol id="icon-File" viewBox="0 0 32 32">
<title>File</title>
<path d="M26.493 7.623l-5.926-6.111c-0.111-0.115-0.262-0.179-0.419-0.179h-12.444c-1.307 0-2.37 1.096-2.37 2.444v24.444c0 1.348 1.063 2.444 2.37 2.444h16.593c1.307 0 2.37-1.096 2.37-2.444v-20.167c0-0.162-0.063-0.317-0.174-0.432zM20.741 3.42l3.903 4.025h-2.718c-0.653 0-1.185-0.548-1.185-1.222v-2.803zM25.482 28.222c0 0.674-0.532 1.222-1.185 1.222h-16.593c-0.653 0-1.185-0.548-1.185-1.222v-24.444c0-0.674 0.532-1.222 1.185-1.222h11.852v3.667c0 1.348 1.063 2.444 2.37 2.444h3.556v19.556z"></path>
</symbol>
<symbol id="icon-Filled" viewBox="0 0 32 32">
<title>Filled</title>
<path d="M16 5.333c-5.891 0-10.667 4.776-10.667 10.667s4.776 10.667 10.667 10.667c5.891 0 10.667-4.776 10.667-10.667s-4.776-10.667-10.667-10.667z"></path>
</symbol>
<symbol id="icon-Left" viewBox="0 0 32 32">
<title>Left</title>
<path d="M26.667 16c0-0.515-0.398-0.933-0.889-0.933h-17.733l6.79-6.791c0.355-0.355 0.37-0.945 0.031-1.32s-0.901-0.388-1.256-0.032l-7.755 7.756c-0.336 0.353-0.521 0.821-0.521 1.32s0.185 0.967 0.536 1.336l7.74 7.74c0.356 0.356 0.918 0.341 1.256-0.032s0.325-0.964-0.031-1.319l-6.819-6.791h17.761c0.491 0 0.889-0.418 0.889-0.933z"></path>
</symbol>
<symbol id="icon-Menu" viewBox="0 0 32 32">
<title>Menu</title>
<path d="M25.998 19.999c0.368 0 0.667 0.299 0.667 0.667s-0.299 0.667-0.667 0.667v0h-13.332c-0.368 0-0.667-0.299-0.667-0.667s0.299-0.667 0.667-0.667v0zM25.998 15.333c0.368 0 0.667 0.299 0.667 0.667s-0.299 0.667-0.667 0.667v0h-19.998c-0.368 0-0.667-0.299-0.667-0.667s0.299-0.667 0.667-0.667v0zM25.998 10.667c0.368 0 0.667 0.299 0.667 0.667s-0.299 0.667-0.667 0.667v0h-19.998c-0.368 0-0.667-0.299-0.667-0.667s0.299-0.667 0.667-0.667v0z"></path>
</symbol>
<symbol id="icon-Outlined" viewBox="0 0 32 32">
<title>Outlined</title>
<path d="M16 5.333c-5.891 0-10.667 4.776-10.667 10.667s4.776 10.667 10.667 10.667c5.891 0 10.667-4.776 10.667-10.667s-4.776-10.667-10.667-10.667zM16 24.889c-4.909 0-8.889-3.98-8.889-8.889s3.98-8.889 8.889-8.889c4.909 0 8.889 3.98 8.889 8.889s-3.98 8.889-8.889 8.889z"></path>
</symbol>
<symbol id="icon-Right" viewBox="0 0 32 32">
<title>Right</title>
<path d="M5.333 16c0 0.515 0.398 0.933 0.889 0.933h17.733l-6.79 6.791c-0.355 0.355-0.37 0.945-0.031 1.32s0.901 0.388 1.256 0.032l7.755-7.756c0.336-0.353 0.521-0.821 0.521-1.32s-0.185-0.967-0.536-1.336l-7.74-7.74c-0.356-0.356-0.918-0.341-1.256 0.032s-0.325 0.964 0.031 1.319l6.819 6.791h-17.761c-0.491 0-0.889 0.418-0.889 0.933z"></path>
</symbol>
<symbol id="icon-ToBottom" viewBox="0 0 32 32">
<title>ToBottom</title>
<path d="M16 0c8.837 0 16 7.163 16 16s-7.163 16-16 16c-8.837 0-16-7.163-16-16s7.163-16 16-16zM16 0.97c-8.301 0-15.030 6.729-15.030 15.030s6.729 15.030 15.030 15.030c8.301 0 15.030-6.729 15.030-15.030s-6.729-15.030-15.030-15.030zM16 8.889c0.343 0 0.622 0.265 0.622 0.593v0 11.841l4.527-4.546c0.237-0.237 0.631-0.247 0.88-0.020s0.259 0.601 0.021 0.838v0l-5.16 5.16c-0.245 0.234-0.558 0.358-0.89 0.358s-0.645-0.123-0.88-0.347v0l-5.171-5.17c-0.237-0.237-0.227-0.612 0.021-0.838s0.643-0.216 0.88 0.020v0l4.527 4.527v-11.822c0-0.327 0.279-0.593 0.622-0.593z"></path>
</symbol>
<symbol id="icon-ToLeft" viewBox="0 0 32 32">
<title>ToLeft</title>
<path d="M16 0c8.837 0 16 7.163 16 16s-7.163 16-16 16c-8.837 0-16-7.163-16-16s7.163-16 16-16zM16 0.97c-8.301 0-15.030 6.729-15.030 15.030s6.729 15.030 15.030 15.030c8.301 0 15.030-6.729 15.030-15.030s-6.729-15.030-15.030-15.030zM14.406 9.949c0.237-0.237 0.612-0.227 0.838 0.021s0.216 0.643-0.020 0.88v0l-4.527 4.527h11.822c0.327 0 0.593 0.279 0.593 0.622s-0.265 0.622-0.593 0.622v0h-11.841l4.546 4.527c0.237 0.237 0.247 0.631 0.020 0.88s-0.601 0.259-0.838 0.021v0l-5.16-5.16c-0.234-0.245-0.358-0.558-0.358-0.89s0.123-0.645 0.347-0.88v0z"></path>
</symbol>
<symbol id="icon-ToRight" viewBox="0 0 32 32">
<title>ToRight</title>
<path d="M16 0c8.837 0 16 7.163 16 16s-7.163 16-16 16c-8.837 0-16-7.163-16-16s7.163-16 16-16zM16 0.97c-8.301 0-15.030 6.729-15.030 15.030s6.729 15.030 15.030 15.030c8.301 0 15.030-6.729 15.030-15.030s-6.729-15.030-15.030-15.030zM16.756 9.971c0.226-0.249 0.601-0.259 0.838-0.021v0l5.16 5.16c0.234 0.245 0.358 0.558 0.358 0.89s-0.123 0.645-0.347 0.88v0l-5.17 5.171c-0.237 0.237-0.612 0.227-0.838-0.021s-0.216-0.643 0.020-0.88v0l4.527-4.527h-11.822c-0.327 0-0.593-0.279-0.593-0.622s0.265-0.622 0.593-0.622v0h11.841l-4.546-4.527c-0.237-0.237-0.247-0.631-0.020-0.88z"></path>
</symbol>
<symbol id="icon-ToTop" viewBox="0 0 32 32">
<title>ToTop</title>
<path d="M16 0c8.837 0 16 7.163 16 16s-7.163 16-16 16c-8.837 0-16-7.163-16-16s7.163-16 16-16zM16 0.97c-8.301 0-15.030 6.729-15.030 15.030s6.729 15.030 15.030 15.030c8.301 0 15.030-6.729 15.030-15.030s-6.729-15.030-15.030-15.030zM16 8.889c0.332 0 0.645 0.123 0.89 0.358l5.16 5.16c0.237 0.237 0.227 0.612-0.021 0.838s-0.642 0.217-0.88-0.020l-4.527-4.546v11.841c0 0.327-0.279 0.593-0.622 0.593s-0.622-0.265-0.622-0.593v-11.822l-4.527 4.527c-0.237 0.237-0.63 0.247-0.88 0.020s-0.259-0.601-0.021-0.838l5.171-5.17c0.235-0.224 0.548-0.347 0.88-0.347z"></path>
</symbol>
<symbol id="icon-Up" viewBox="0 0 32 32">
<title>Up</title>
<path d="M16 26.667c-0.515 0-0.933-0.398-0.933-0.889v-17.733l-6.791 6.79c-0.355 0.355-0.945 0.37-1.32 0.031s-0.388-0.901-0.032-1.256l7.756-7.755c0.353-0.336 0.821-0.521 1.32-0.521s0.967 0.185 1.336 0.536l7.74 7.74c0.356 0.356 0.341 0.918-0.032 1.256s-0.964 0.325-1.319-0.031l-6.791-6.819v17.761c0 0.491-0.418 0.889-0.933 0.889z"></path>
</symbol>
</defs>
</svg>
