<!-- Generated by IcoMoon.io -->
<svg version="1.1" xmlns="http://www.w3.org/2000/svg" width="32" height="32" viewBox="0 0 32 32">
<title>Copy</title>
<path d="M19.823 7.324c1.154 0 2.095 0.943 2.101 2.105v0 17.761c0 1.162-0.942 2.105-2.101 2.105v0h-12.354c-1.159 0-2.101-0.943-2.101-2.105v0-17.761c0-1.162 0.941-2.105 2.101-2.105v0zM19.818 8.796h-12.354c-0.348 0-0.631 0.284-0.631 0.633v0 17.756c0 0.349 0.283 0.633 0.631 0.633v0h12.354c0.348 0 0.631-0.284 0.631-0.633v0-17.756c0-0.349-0.283-0.633-0.631-0.633v0zM24.547 2.667c1.159 0 2.101 0.943 2.101 2.105v0 17.761c0 1.162-0.942 2.105-2.101 2.105-0.408 0-0.735-0.327-0.735-0.736s0.327-0.736 0.735-0.736c0.348 0 0.631-0.284 0.631-0.633v0-17.761c0-0.349-0.283-0.633-0.631-0.633v0h-12.354c-0.348 0-0.631 0.284-0.631 0.633 0 0.409-0.327 0.736-0.735 0.736s-0.735-0.327-0.735-0.736c0-1.162 0.941-2.105 2.101-2.105v0z"></path>
</svg>
