<!-- Generated by IcoMoon.io -->
<svg version="1.1" xmlns="http://www.w3.org/2000/svg" width="32" height="32" viewBox="0 0 32 32">
<title>File</title>
<path d="M26.493 7.623l-5.926-6.111c-0.111-0.115-0.262-0.179-0.419-0.179h-12.444c-1.307 0-2.37 1.096-2.37 2.444v24.444c0 1.348 1.063 2.444 2.37 2.444h16.593c1.307 0 2.37-1.096 2.37-2.444v-20.167c0-0.162-0.063-0.317-0.174-0.432zM20.741 3.42l3.903 4.025h-2.718c-0.653 0-1.185-0.548-1.185-1.222v-2.803zM25.482 28.222c0 0.674-0.532 1.222-1.185 1.222h-16.593c-0.653 0-1.185-0.548-1.185-1.222v-24.444c0-0.674 0.532-1.222 1.185-1.222h11.852v3.667c0 1.348 1.063 2.444 2.37 2.444h3.556v19.556z"></path>
</svg>
