<!-- Generated by IcoMoon.io -->
<svg version="1.1" xmlns="http://www.w3.org/2000/svg" width="32" height="32" viewBox="0 0 32 32">
<title>Menu</title>
<path d="M25.998 19.999c0.368 0 0.667 0.299 0.667 0.667s-0.299 0.667-0.667 0.667v0h-13.332c-0.368 0-0.667-0.299-0.667-0.667s0.299-0.667 0.667-0.667v0zM25.998 15.333c0.368 0 0.667 0.299 0.667 0.667s-0.299 0.667-0.667 0.667v0h-19.998c-0.368 0-0.667-0.299-0.667-0.667s0.299-0.667 0.667-0.667v0zM25.998 10.667c0.368 0 0.667 0.299 0.667 0.667s-0.299 0.667-0.667 0.667v0h-19.998c-0.368 0-0.667-0.299-0.667-0.667s0.299-0.667 0.667-0.667v0z"></path>
</svg>
