<!-- Generated by IcoMoon.io -->
<svg version="1.1" xmlns="http://www.w3.org/2000/svg" width="32" height="32" viewBox="0 0 32 32">
<title>ToBottom</title>
<path d="M16 0c8.837 0 16 7.163 16 16s-7.163 16-16 16c-8.837 0-16-7.163-16-16s7.163-16 16-16zM16 0.97c-8.301 0-15.030 6.729-15.030 15.030s6.729 15.030 15.030 15.030c8.301 0 15.030-6.729 15.030-15.030s-6.729-15.030-15.030-15.030zM16 8.889c0.343 0 0.622 0.265 0.622 0.593v0 11.841l4.527-4.546c0.237-0.237 0.631-0.247 0.88-0.020s0.259 0.601 0.021 0.838v0l-5.16 5.16c-0.245 0.234-0.558 0.358-0.89 0.358s-0.645-0.123-0.88-0.347v0l-5.171-5.17c-0.237-0.237-0.227-0.612 0.021-0.838s0.643-0.216 0.88 0.020v0l4.527 4.527v-11.822c0-0.327 0.279-0.593 0.622-0.593z"></path>
</svg>
