<!-- Generated by IcoMoon.io -->
<svg version="1.1" xmlns="http://www.w3.org/2000/svg" width="32" height="32" viewBox="0 0 32 32">
<title>ToRight</title>
<path d="M16 0c8.837 0 16 7.163 16 16s-7.163 16-16 16c-8.837 0-16-7.163-16-16s7.163-16 16-16zM16 0.97c-8.301 0-15.030 6.729-15.030 15.030s6.729 15.030 15.030 15.030c8.301 0 15.030-6.729 15.030-15.030s-6.729-15.030-15.030-15.030zM16.756 9.971c0.226-0.249 0.601-0.259 0.838-0.021v0l5.16 5.16c0.234 0.245 0.358 0.558 0.358 0.89s-0.123 0.645-0.347 0.88v0l-5.17 5.171c-0.237 0.237-0.612 0.227-0.838-0.021s-0.216-0.643 0.020-0.88v0l4.527-4.527h-11.822c-0.327 0-0.593-0.279-0.593-0.622s0.265-0.622 0.593-0.622v0h11.841l-4.546-4.527c-0.237-0.237-0.247-0.631-0.020-0.88z"></path>
</svg>
